<?xml version="1.0" standalone="no"?>
<!DOCTYPE svg PUBLIC "-//W3C//DTD SVG 20010904//EN"
 "http://www.w3.org/TR/2001/REC-SVG-20010904/DTD/svg10.dtd">
<svg version="1.0" xmlns="http://www.w3.org/2000/svg"
 width="512.000000pt" height="512.000000pt" viewBox="0 0 512.000000 512.000000"
 preserveAspectRatio="xMidYMid meet">
<metadata>
Created by potrace 1.11, written by Peter Selinger 2001-2013
</metadata>
<g transform="translate(0.000000,512.000000) scale(0.100000,-0.100000)"
fill="#000000" stroke="none">
<path d="M1822 5107 c-43 -24 -52 -50 -53 -149 -1 -113 22 -184 86 -262 97
-120 95 -105 94 -591 -1 -423 -5 -496 -36 -615 -18 -73 -91 -270 -104 -284 -5
-6 -9 -16 -9 -24 0 -7 -9 -32 -19 -55 -10 -23 -40 -94 -66 -157 -26 -63 -54
-131 -62 -150 -8 -19 -19 -44 -23 -55 -5 -11 -34 -83 -65 -160 -154 -377 -238
-583 -250 -610 -8 -16 -80 -192 -160 -390 -81 -198 -153 -373 -160 -390 -7
-16 -18 -43 -25 -60 -7 -16 -32 -79 -56 -140 -25 -60 -49 -119 -54 -130 -30
-64 -92 -225 -103 -269 -64 -248 76 -501 328 -593 47 -17 121 -18 1470 -18
781 0 1435 3 1453 8 235 55 395 274 379 518 -7 97 14 41 -302 809 -198 483
-251 611 -364 890 -40 96 -76 184 -81 195 -10 22 -38 91 -238 580 -157 386
-165 406 -186 495 -29 122 -31 166 -31 610 0 443 0 445 23 487 12 23 35 57 51
75 78 91 103 160 104 289 0 101 -20 142 -74 153 -17 3 -349 6 -738 6 -547 -1
-711 -4 -729 -13z"/>
</g>
</svg>
